# xmcd
# 
# Track frame offsets:
#     150
#     11223
#     23415
#     28877
#     32829
#     52093
#     78132
#     87195
#     100964
#     116070
#     132142
#     153652
#     170696
#     189945
#     195031
#     207168
#     219828
#     225223
#     234242
#     254212
#     283344
#     296401
#     315367
#     324510
#     332737
# 
# Disc length: 4564
# 
# Revision: 3
# Processed by: cddbd v1.5.2PL0 Copyright (c) Steve Scherf et al.
# Submitted via: fre:ac v1.0.17
# 
DISCID=5211d219
DTITLE=Various Artist - Mary Poppins - Original Live Cast Recording
DYEAR=2011
DGENRE=Musical
TTITLE0=Bert - Prologue - Chim Chim Cher-ee
TTITLE1=George And Winifred Banks, Jane And Michael, Mrs. Brill And Robertson Ay - Cherry Tree Lane Part 1
TTITLE2=Jane And Michael - The Perfect Nanny
TTITLE3=George And Winifred Banks, Jane And Michael, Mrs. Brill And Robertson Ay - Cherry Tree Lane Part 2
TTITLE4=Mary Poppins, Jane And Michael - Practically Perfect
TTITLE5=Bert, Mary Poppins, Jane And Michael, Neleus And The Statues - Jolly Holiday
TTITLE6=George And Winifred Banks, Jane And Michael - Let's Hope She Will Stay
TTITLE7=Mary Poppins, Jane, Michael, Robertson Ay, Winifred Banks - A Spoonful Of Sugar
TTITLE8=The Chairman And The Bank Clerks - Precision And Order
TTITLE9=Bird Woman And Mary Poppins - Feed The Birds
TTITLE10=Mary Poppins, Mrs. Corry, Bert, Jane And Michael, Fannie, Annie And Customers - Supercalifragilisticexpialidocious
TTITLE11=Valentine, William, Mr. Punch, The Doll And Other Toys - Playing The Game
TTITLE12=Bert And Mary Poppins - Chim Chim Cher-ee (Reprise)
TTITLE13=The Orchestra - Entr'acte: Run Away
TTITLE14=Miss Andrew - Brimstone And Treacle Part 1
TTITLE15=Bert, Park Keeper, Jane And Michael - Let's Go Fly A Kite
TTITLE16=George Banks - Good For Nothing
TTITLE17=Winifred Banks - Being Mrs. Banks (Reprise)
TTITLE18=Mary Poppins And Miss Andrew - Brimstone and Treacle Part 2
TTITLE19=Bert, Mary Poppins, Jane, Michael And The Sweeps - Step In Time
TTITLE20=George Banks And Bert - A Man Has Dreams - A Spoonful Of Sugar (Reprise)
TTITLE21=Jane, Michael, Mary Poppins And The Entire Company - Anything Can Happen
TTITLE22=Mary Poppins - The Task Is Done
TTITLE23=George And Winifred Banks, Jane And Michael And The Orchestra - A Shooting Star
TTITLE24=The Company - Bows - Supercalifragilisticexpialidocious (Reprise)
EXTD=
EXTT0=
EXTT1=
EXTT2=
EXTT3=
EXTT4=
EXTT5=
EXTT6=
EXTT7=
EXTT8=
EXTT9=
EXTT10=
EXTT11=
EXTT12=
EXTT13=
EXTT14=
EXTT15=
EXTT16=
EXTT17=
EXTT18=
EXTT19=
EXTT20=
EXTT21=
EXTT22=
EXTT23=
EXTT24=
PLAYORDER=
